<!-- Generated by IcoMoon.io -->
<svg version="1.1" xmlns="http://www.w3.org/2000/svg" viewBox="0 0 30 60" fill="#fff">
<title>location</title>
<path d="M15 6c4.16 0 7.7 1.46 10.62 4.38s4.38 6.46 4.38 10.62c0 4.24-1.24 9.1-3.72 14.58s-5 9.94-7.56 13.38c0 0-3.72 5.040-3.72 5.040-0.4-0.48-0.94-1.18-1.62-2.1s-1.88-2.7-3.6-5.34c-1.72-2.64-3.24-5.24-4.56-7.8s-2.52-5.5-3.6-8.82c-1.080-3.32-1.62-6.3-1.62-8.94 0-4.16 1.46-7.7 4.38-10.62s6.46-4.38 10.62-4.38c0 0 0 0 0 0zM15 29.28c2.24 0 4.16-0.8 5.76-2.4s2.4-3.52 2.4-5.76c0-2.24-0.8-4.14-2.4-5.7s-3.52-2.34-5.76-2.34c-2.24 0-4.14 0.78-5.7 2.34s-2.34 3.46-2.34 5.7c0 2.24 0.78 4.16 2.34 5.76s3.46 2.4 5.7 2.4c0 0 0 0 0 0z"></path>
</svg>
