<!-- Generated by IcoMoon.io -->
<svg version="1.1" xmlns="http://www.w3.org/2000/svg" width="60" height="60" viewBox="0 0 60 60" fill="#fff">
<title>wind</title>
<path fill="none" stroke-linejoin="round" stroke-linecap="round" stroke-miterlimit="4" stroke-width="5" stroke="#fff" d="M23.975 11.475c0.906-0.911 2.16-1.475 3.546-1.475 2.761 0 5 2.239 5 5s-2.239 5-5 5c-0.007 0-0.015 0-0.022-0h-22.499M31.475 48.525c0.906 0.911 2.16 1.475 3.546 1.475 2.761 0 5-2.239 5-5s-2.239-5-5-5c-0.007 0-0.015 0-0.022 0h-29.999M44.325 19.325c1.13-1.128 2.691-1.825 4.414-1.825 3.452 0 6.25 2.798 6.25 6.25 0 3.448-2.792 6.244-6.238 6.25h-43.751"></path>
</svg>
